<svg preserveAspectRatio="none" width="100%" height="100%" overflow="visible" style="display: block;" viewBox="0 0 20 20" fill="none" xmlns="http://www.w3.org/2000/svg">
<g id="emoji-normal">
<path id="Vector" d="M7.5 18.3333H12.5C16.6667 18.3333 18.3333 16.6667 18.3333 12.5V7.5C18.3333 3.33333 16.6667 1.66667 12.5 1.66667H7.5C3.33333 1.66667 1.66667 3.33333 1.66667 7.5V12.5C1.66667 16.6667 3.33333 18.3333 7.5 18.3333Z" stroke="var(--stroke-0, white)" stroke-width="1.5" stroke-linecap="round" stroke-linejoin="round"/>
<path id="Vector_2" d="M5.83333 6.875C6.66667 7.70833 8.025 7.70833 8.86667 6.875" stroke="var(--stroke-0, white)" stroke-width="1.5" stroke-miterlimit="10" stroke-linecap="round" stroke-linejoin="round"/>
<path id="Vector_3" d="M11.1333 6.875C11.9667 7.70833 13.325 7.70833 14.1667 6.875" stroke="var(--stroke-0, white)" stroke-width="1.5" stroke-miterlimit="10" stroke-linecap="round" stroke-linejoin="round"/>
<path id="Vector_4" d="M7 10.8333H13C13.4167 10.8333 13.75 11.1667 13.75 11.5833C13.75 13.6583 12.075 15.3333 10 15.3333C7.925 15.3333 6.25 13.6583 6.25 11.5833C6.25 11.1667 6.58333 10.8333 7 10.8333Z" stroke="var(--stroke-0, white)" stroke-width="1.5" stroke-miterlimit="10" stroke-linecap="round" stroke-linejoin="round"/>
<g id="Vector_5" opacity="0">
</g>
</g>
</svg>
